<?xml version="1.0" standalone="no"?>
<!DOCTYPE svg PUBLIC "-//W3C//DTD SVG 20010904//EN"
 "http://www.w3.org/TR/2001/REC-SVG-20010904/DTD/svg10.dtd">
<svg version="1.0" xmlns="http://www.w3.org/2000/svg"
 width="700.000000pt" height="700.000000pt" viewBox="0 0 700.000000 700.000000"
 preserveAspectRatio="xMidYMid meet">
<metadata>
Created by potrace 1.11, written by Peter Selinger 2001-2013
</metadata>
<g transform="translate(0.000000,700.000000) scale(0.100000,-0.100000)"
fill="#000000" stroke="none">
<path d="M4751 6803 c-45 -76 -90 -149 -100 -162 l-19 -25 -58 21 c-58 21
-195 60 -236 68 -12 3 -35 9 -52 14 -17 6 -47 13 -66 16 -19 3 -71 12 -115 20
-44 8 -102 17 -130 21 -27 3 -59 8 -69 10 -133 25 -606 24 -806 -1 -25 -4 -61
-8 -80 -11 -89 -11 -326 -58 -382 -75 -18 -6 -44 -12 -57 -15 -14 -3 -85 -25
-158 -49 -389 -129 -740 -318 -1058 -572 -153 -121 -382 -351 -519 -518 -154
-189 -331 -486 -430 -720 -21 -49 -42 -99 -47 -110 -48 -107 -135 -422 -163
-591 -34 -201 -41 -292 -41 -539 0 -282 12 -402 69 -672 55 -259 198 -629 333
-858 101 -170 278 -425 295 -425 5 0 24 11 41 23 151 112 360 265 395 291 24
17 54 40 68 51 l24 20 -68 90 c-217 286 -359 604 -448 1000 -5 19 -15 81 -28
165 -29 184 -26 490 8 705 147 941 838 1740 1773 2050 156 52 328 93 453 110
25 3 52 8 60 10 92 25 557 25 700 0 14 -2 45 -6 70 -9 85 -10 364 -77 378 -90
3 -3 -32 -68 -78 -143 -45 -76 -91 -152 -101 -168 l-18 -30 734 0 c403 0 736
3 740 6 3 4 -9 31 -27 60 -18 30 -40 66 -48 80 -8 15 -111 186 -228 380 -118
195 -219 363 -225 374 -7 11 -24 39 -39 63 -16 24 -28 45 -28 48 0 2 -22 40
-50 84 -27 44 -50 82 -50 86 0 3 -9 17 -19 30 l-19 24 -81 -137z"/>
<path d="M3249 5806 c-2 -2 -24 -6 -49 -10 -85 -11 -115 -18 -205 -48 -106
-36 -167 -65 -255 -124 -299 -198 -424 -522 -316 -819 37 -102 84 -173 177
-265 104 -104 136 -127 253 -184 168 -83 322 -118 516 -119 136 -1 205 6 319
34 338 84 608 322 677 599 106 424 -227 822 -776 927 -32 6 -335 14 -341 9z"/>
<path d="M6109 5528 c-24 -18 -46 -35 -49 -38 -3 -3 -36 -28 -75 -55 -57 -40
-137 -99 -220 -163 -5 -4 -38 -27 -72 -52 -34 -25 -63 -49 -63 -53 0 -5 27
-43 59 -86 107 -140 232 -360 311 -546 40 -92 102 -278 114 -341 2 -10 11 -48
19 -84 9 -36 18 -85 22 -110 3 -25 11 -72 16 -105 14 -80 20 -441 9 -535 -16
-139 -21 -169 -41 -262 -11 -51 -22 -103 -25 -114 -21 -103 -95 -309 -164
-459 -253 -543 -746 -1020 -1310 -1269 -135 -60 -140 -62 -236 -95 -118 -40
-297 -86 -410 -105 -183 -31 -264 -38 -456 -40 -151 -2 -223 2 -358 19 -158
20 -400 74 -400 89 0 6 41 79 90 161 l91 150 -371 3 c-203 1 -536 1 -740 0
l-370 -3 368 -612 c202 -337 369 -612 372 -613 5 0 123 193 180 293 l25 44
115 -34 c101 -30 234 -62 310 -76 135 -25 195 -34 276 -42 32 -3 97 -9 144
-14 94 -9 403 -7 520 3 128 12 294 35 397 57 54 11 109 22 123 25 55 11 274
76 362 108 213 77 470 199 613 290 30 20 57 36 59 36 7 0 168 112 236 164 194
149 392 338 535 511 28 33 52 62 55 65 3 3 35 46 72 95 308 418 522 941 584
1430 3 28 8 58 9 67 9 43 18 227 18 348 1 127 -10 347 -17 359 -2 3 -7 35 -10
69 -10 96 -33 212 -71 357 -104 399 -278 759 -537 1107 l-65 88 -44 -32z"/>
<path d="M2595 4214 c-101 -75 -136 -106 -223 -194 -407 -411 -590 -966 -403
-1220 37 -50 59 -68 121 -98 87 -42 202 -37 295 12 17 9 35 16 41 16 15 0 33
-69 29 -110 -6 -45 -6 -277 -2 -310 2 -14 8 -50 12 -80 4 -30 9 -64 11 -75 2
-11 6 -32 9 -46 9 -48 75 -228 101 -276 146 -267 353 -393 548 -336 98 29 161
94 215 223 23 53 28 70 31 100 1 8 12 -14 24 -50 37 -105 65 -152 122 -206 58
-56 103 -74 197 -79 65 -3 165 27 228 70 190 125 335 422 366 750 11 121 5
344 -12 398 -2 7 -6 25 -9 40 l-7 28 43 -27 c117 -74 246 -90 349 -42 134 61
200 196 193 391 -3 77 -40 244 -69 313 -8 20 -15 38 -15 40 0 5 60 30 170 69
58 21 125 47 150 58 24 11 72 24 105 30 78 13 138 -8 200 -71 l44 -45 28 30
c38 41 91 66 199 96 120 33 162 54 185 91 37 61 19 112 -54 159 -22 14 -38 17
-75 11 -93 -15 -146 -7 -337 50 -5 1 -27 6 -47 10 -24 5 -40 15 -44 28 -13 43
-84 43 -84 -1 -1 -15 -15 -42 -34 -63 -30 -34 -50 -43 -286 -119 -229 -74
-254 -80 -262 -64 -49 86 -230 295 -348 400 -63 56 -183 145 -196 145 -7 0
-47 -18 -91 -40 -132 -66 -313 -117 -473 -135 -48 -5 -252 -5 -310 0 -42 4
-85 11 -160 27 -30 6 -57 12 -60 13 -35 6 -193 66 -253 96 -43 22 -84 39 -90
39 -7 0 -39 -21 -72 -46z"/>
</g>
</svg>
