<?xml version="1.0" standalone="no"?>
<!DOCTYPE svg PUBLIC "-//W3C//DTD SVG 20010904//EN"
 "http://www.w3.org/TR/2001/REC-SVG-20010904/DTD/svg10.dtd">
<svg version="1.0" xmlns="http://www.w3.org/2000/svg"
 width="680.000000pt" height="680.000000pt" viewBox="0 0 680.000000 680.000000"
 preserveAspectRatio="xMidYMid meet">
<metadata>
Created by potrace 1.11, written by Peter Selinger 2001-2013
</metadata>
<g transform="translate(0.000000,680.000000) scale(0.100000,-0.100000)"
fill="#000000" stroke="none">
<path d="M3785 6789 c-379 -36 -743 -140 -1055 -300 -715 -368 -1240 -1024
-1435 -1793 -123 -487 -123 -905 0 -1392 248 -980 1029 -1761 2009 -2009 196
-50 328 -71 544 -87 l152 -12 0 -195 0 -194 -137 6 c-767 35 -1495 343 -2047
868 -611 580 -965 1349 -1003 2182 l-6 137 -404 0 -403 0 0 -117 c0 -233 42
-550 109 -826 140 -578 401 -1107 777 -1577 138 -173 421 -456 594 -594 238
-190 553 -388 810 -508 520 -244 1104 -378 1643 -378 l167 0 0 2000 0 2000
895 0 895 0 0 43 c0 79 -32 302 -60 414 -100 399 -345 772 -672 1026 -287 221
-589 347 -943 391 -71 9 -168 16 -215 16 -303 0 -668 -99 -932 -253 -526 -307
-867 -822 -942 -1422 -20 -164 -20 -266 0 -430 44 -354 170 -656 391 -943 254
-327 627 -572 1026 -672 112 -28 335 -60 415 -60 l42 0 0 -150 0 -151 -62 6
c-399 38 -643 101 -909 234 -273 137 -547 362 -736 603 -257 328 -407 686
-459 1093 -60 477 54 985 315 1400 181 287 419 525 706 706 125 78 220 126
367 184 208 81 375 116 726 151 l52 5 0 305 0 304 -62 -1 c-35 -1 -103 -6
-153 -10z"/>
</g>
</svg>
