<?xml version="1.0" standalone="no"?>
<!DOCTYPE svg PUBLIC "-//W3C//DTD SVG 20010904//EN"
 "http://www.w3.org/TR/2001/REC-SVG-20010904/DTD/svg10.dtd">
<svg version="1.0" xmlns="http://www.w3.org/2000/svg"
 width="700.000000pt" height="700.000000pt" viewBox="0 0 700.000000 700.000000"
 preserveAspectRatio="xMidYMid meet">
<metadata>
Created by potrace 1.11, written by Peter Selinger 2001-2013
</metadata>
<g transform="translate(0.000000,700.000000) scale(0.100000,-0.100000)"
fill="#000000" stroke="none">
<path d="M4315 6869 c-379 -36 -743 -140 -1055 -300 -715 -368 -1240 -1024
-1435 -1793 -123 -487 -123 -905 0 -1392 248 -980 1029 -1761 2009 -2009 211
-54 496 -95 654 -95 l42 0 0 304 0 305 -52 5 c-423 43 -651 101 -919 235 -273
137 -547 362 -736 603 -257 328 -407 686 -459 1093 -60 477 54 985 315 1400
181 287 419 525 706 706 125 78 220 126 367 184 208 81 375 116 726 151 l52 5
0 305 0 304 -62 -1 c-35 -1 -103 -6 -153 -10z"/>
<path d="M4305 5954 c-500 -65 -954 -323 -1258 -716 -221 -287 -347 -589 -391
-943 -20 -164 -20 -266 0 -430 44 -354 170 -656 391 -943 254 -327 627 -572
1026 -672 112 -28 335 -60 415 -60 l42 0 0 945 0 945 945 0 945 0 0 43 c0 23
-7 101 -16 172 -52 416 -230 789 -523 1097 -94 99 -282 245 -419 325 -340 198
-772 287 -1157 237z"/>
<path d="M530 3963 c0 -233 42 -550 109 -826 140 -578 401 -1107 777 -1577
138 -173 421 -456 594 -594 470 -376 999 -637 1577 -777 276 -67 593 -109 826
-109 l117 0 0 403 0 404 -137 6 c-767 35 -1495 343 -2047 868 -611 580 -965
1349 -1003 2182 l-6 137 -404 0 -403 0 0 -117z"/>
</g>
</svg>
