<?xml version="1.0" standalone="no"?>
<!DOCTYPE svg PUBLIC "-//W3C//DTD SVG 20010904//EN"
 "http://www.w3.org/TR/2001/REC-SVG-20010904/DTD/svg10.dtd">
<svg version="1.0" xmlns="http://www.w3.org/2000/svg"
 width="1680.000000pt" height="1680.000000pt" viewBox="0 0 1680.000000 1680.000000"
 preserveAspectRatio="xMidYMid meet">
<metadata>
Created by potrace 1.11, written by Peter Selinger 2001-2013
</metadata>
<g transform="translate(0.000000,1680.000000) scale(0.100000,-0.100000)"
fill="#000000" stroke="none">
<path d="M12658 15005 c-2 -2 -48 -7 -102 -10 -55 -3 -102 -7 -105 -9 -3 -2
-37 -7 -76 -11 -38 -4 -72 -8 -75 -10 -4 -2 -26 -6 -51 -9 -56 -7 -61 -8 -234
-46 -324 -71 -703 -218 -1023 -397 -159 -89 -417 -259 -492 -326 -8 -7 -40
-33 -70 -57 -30 -25 -65 -55 -77 -68 -13 -13 -23 -20 -23 -16 0 3 -12 -7 -27
-23 -16 -16 -41 -39 -57 -51 -16 -12 -26 -22 -23 -22 3 0 -17 -21 -45 -47 -28
-27 -72 -70 -97 -97 -25 -27 -55 -59 -66 -70 -30 -31 -177 -207 -200 -241 -11
-15 -28 -35 -37 -44 -10 -8 -18 -21 -18 -27 0 -7 -4 -14 -8 -16 -15 -6 -180
-263 -250 -388 -209 -375 -352 -773 -427 -1190 -13 -74 -27 -153 -29 -175 -3
-22 -8 -62 -12 -89 -3 -28 -9 -70 -12 -95 -3 -25 -7 -1655 -9 -3621 -2 -1966
-5 -3580 -7 -3585 -2 -6 -21 -19 -42 -30 -21 -11 -45 -26 -52 -33 -8 -7 -18
-10 -23 -7 -5 4 -9 2 -9 -3 0 -5 -15 -15 -32 -23 -18 -7 -36 -18 -40 -23 -4
-6 -11 -11 -15 -12 -12 -1 -47 -17 -53 -23 -12 -14 -68 -40 -74 -34 -3 3 -6 1
-6 -6 0 -7 -4 -9 -10 -6 -5 3 -10 1 -10 -4 0 -6 -4 -11 -9 -11 -5 0 -44 -16
-88 -36 -43 -19 -87 -39 -98 -44 -11 -5 -42 -19 -70 -31 -27 -12 -79 -32 -115
-45 -36 -13 -67 -29 -68 -34 -2 -6 -7 -8 -12 -5 -4 2 -50 -10 -101 -29 -52
-18 -146 -48 -209 -67 -63 -18 -117 -36 -120 -39 -3 -3 -13 -5 -22 -6 -47 -2
-59 -5 -54 -12 3 -4 -8 -7 -25 -6 -16 1 -29 -1 -29 -5 0 -4 -8 -7 -17 -8 -10
0 -29 -4 -43 -7 -51 -12 -95 -20 -102 -18 -5 1 -8 -2 -8 -6 0 -4 -10 -8 -22
-9 -23 0 -50 -5 -143 -23 -27 -6 -66 -12 -85 -14 -19 -2 -46 -6 -60 -10 -14
-3 -50 -8 -80 -10 -30 -3 -55 -5 -55 -6 0 -3 -52 -8 -135 -15 -41 -3 -100 -7
-131 -10 -31 -3 -96 -7 -146 -8 -49 -2 -94 -7 -101 -11 -7 -4 -12 -4 -12 1 0
4 -55 8 -123 9 -116 0 -274 8 -382 19 -27 3 -57 6 -65 6 -14 0 -106 12 -190
24 -19 3 -53 8 -75 10 -21 3 -51 8 -65 11 -14 3 -34 6 -45 8 -11 1 -26 5 -32
9 -8 5 -13 3 -13 -4 0 -8 -3 -9 -13 0 -8 6 -17 8 -20 4 -4 -3 -7 -1 -7 6 0 7
-4 10 -8 7 -5 -3 -37 2 -72 10 -36 8 -74 17 -85 19 -11 2 -20 4 -20 5 0 1 -13
4 -30 6 -16 3 -37 7 -45 11 -8 3 -26 8 -40 10 -14 2 -34 7 -45 12 -11 5 -58
19 -105 32 -47 12 -89 25 -95 28 -5 3 -19 7 -29 8 -11 2 -33 10 -48 18 -16 7
-25 9 -22 3 4 -6 -6 -4 -22 4 -54 29 -154 65 -163 59 -2 -2 -7 2 -11 8 -3 6
-15 13 -26 15 -22 5 -62 20 -114 43 -19 9 -53 23 -75 33 -22 10 -75 34 -117
54 -43 19 -83 37 -90 38 -7 2 -15 6 -18 9 -3 3 -47 27 -97 53 -51 26 -95 52
-98 57 -4 5 -16 9 -27 9 -12 0 -19 3 -15 6 6 6 -45 38 -106 66 -15 7 -27 16
-27 21 0 4 -5 5 -10 2 -6 -3 -13 1 -16 9 -3 9 -11 16 -16 16 -5 0 -22 9 -37
19 -15 11 -34 21 -42 23 -8 2 -20 11 -27 21 -7 9 -19 17 -27 17 -7 0 -15 3
-17 8 -1 4 -23 21 -48 37 -25 17 -49 33 -55 38 -5 4 -54 40 -107 80 -53 40
-111 85 -128 100 -16 15 -30 25 -30 22 0 -3 -10 4 -23 17 -13 13 -42 39 -66
58 -73 59 -147 128 -300 281 -171 170 -202 205 -193 214 4 4 2 5 -3 3 -6 -1
-22 10 -37 25 -15 15 -25 27 -22 27 2 0 -10 16 -28 35 -18 20 -39 45 -48 57
-8 11 -23 29 -32 39 -10 11 -18 22 -18 25 0 3 -8 13 -17 22 -48 48 -303 412
-303 433 0 5 -4 9 -9 9 -5 0 -11 8 -15 18 -6 18 -16 36 -79 138 -20 34 -37 66
-37 72 0 6 -3 12 -7 14 -5 2 -19 26 -33 53 -14 28 -28 52 -31 55 -8 7 -22 44
-21 53 1 4 -2 7 -7 7 -8 0 -24 37 -22 53 1 4 -3 7 -7 7 -8 0 -34 64 -32 76 1
4 -3 10 -10 14 -6 4 -12 13 -14 21 -1 8 -10 29 -19 46 -10 18 -17 35 -17 38 0
3 -12 31 -26 62 -14 32 -27 63 -28 68 -3 10 -20 54 -33 85 -3 8 -7 18 -8 23
-2 4 -4 9 -5 12 -1 3 -4 8 -5 13 -1 4 -8 23 -16 42 -7 19 -12 39 -11 44 2 4
-3 14 -9 22 -6 8 -8 14 -3 14 5 0 4 4 -2 8 -6 4 -18 34 -28 67 -10 33 -24 83
-33 110 -8 28 -15 56 -15 63 -1 6 -5 12 -10 12 -5 0 -7 4 -4 9 3 5 -1 32 -10
62 -21 69 -26 90 -27 112 -1 9 -4 17 -8 17 -4 0 -5 9 -2 20 3 11 1 20 -5 20
-5 0 -10 10 -11 23 -2 51 -5 77 -11 77 -5 0 -11 36 -13 83 -1 9 -4 17 -7 17
-5 0 -8 22 -13 90 -1 14 -5 30 -8 35 -6 11 -12 61 -13 113 -1 17 -4 32 -7 32
-4 0 -7 12 -7 28 0 31 -10 127 -12 127 -2 0 -4 23 -16 185 -19 263 -4 718 31
940 6 36 17 123 18 138 0 6 3 12 6 12 3 0 6 17 7 38 1 20 4 53 8 72 4 19 10
51 13 70 4 19 8 37 8 40 5 24 19 97 20 105 1 6 4 17 7 25 4 8 9 26 11 40 8 39
14 62 30 116 8 27 14 51 15 54 0 3 10 39 23 80 25 83 26 86 32 116 3 11 12 37
21 58 9 21 13 42 10 47 -3 5 0 9 7 9 7 0 10 3 6 6 -3 4 3 24 14 45 11 22 17
39 13 39 -4 0 -1 6 5 13 6 8 12 22 14 33 1 10 7 26 12 34 5 8 10 21 11 28 2 7
12 33 23 58 12 24 21 46 21 49 0 2 13 34 30 69 38 85 63 140 65 146 5 21 113
225 126 239 8 9 14 22 11 29 -2 6 1 12 7 12 6 0 11 4 11 10 0 5 31 60 68 122
38 62 75 124 83 138 8 13 19 29 24 35 6 6 19 28 30 48 11 20 23 37 27 37 5 0
8 6 8 14 0 8 4 16 8 18 4 2 23 25 42 53 19 27 40 55 45 62 16 19 28 35 60 78
33 45 43 57 85 104 16 19 30 37 30 40 0 3 18 25 40 49 21 23 36 42 32 42 -4 1
4 7 18 15 14 8 21 14 16 15 -11 0 52 67 229 242 174 173 175 174 187 170 5 -1
7 1 4 6 -5 8 37 52 49 52 2 0 15 10 28 23 35 33 110 97 113 97 4 0 15 9 64 51
10 8 31 24 45 35 15 10 39 29 53 41 15 13 33 23 40 23 7 0 10 5 7 10 -3 6 0
10 8 10 7 0 22 8 33 18 37 34 171 122 184 122 6 0 10 5 10 10 0 6 7 10 15 10
7 0 19 8 24 18 6 9 11 13 11 7 0 -6 3 -6 8 1 7 10 67 46 149 89 24 12 40 25
36 29 -3 3 2 6 11 6 10 0 31 9 47 21 16 11 29 17 29 14 0 -4 7 1 16 9 8 9 21
16 29 16 7 0 15 3 17 8 2 6 149 82 168 87 3 1 23 10 45 20 22 10 42 19 45 20
3 1 30 13 60 26 30 14 87 38 125 53 39 16 84 34 100 41 17 7 53 20 80 30 28 9
57 20 65 23 8 3 20 6 25 8 6 1 37 11 70 23 32 11 63 17 67 15 4 -3 8 -1 8 4 0
8 65 27 72 21 2 -1 12 3 24 9 11 6 32 13 45 16 13 3 38 9 56 15 17 5 34 7 37
3 3 -3 6 1 6 8 0 7 2 11 6 8 3 -3 22 -2 42 3 42 11 68 17 97 23 11 2 40 9 65
16 25 6 63 13 85 16 22 3 51 7 65 10 14 4 39 7 55 9 17 2 30 4 30 5 0 3 79 15
165 25 25 3 61 8 80 10 86 11 274 25 415 30 55 2 102 4 105 5 24 7 539 -24
600 -36 14 -3 43 -7 65 -9 37 -4 144 -20 205 -31 14 -2 41 -7 60 -10 19 -4 40
-7 45 -8 6 -2 33 -6 60 -11 28 -4 56 -12 63 -17 6 -6 12 -8 12 -5 0 3 15 1 33
-4 17 -5 49 -11 70 -14 21 -3 46 -9 56 -14 10 -6 28 -11 42 -13 13 -2 30 -7
37 -12 7 -4 16 -5 19 -2 3 3 14 1 25 -5 11 -6 29 -12 40 -14 22 -5 82 -22 108
-32 16 -7 30 -11 58 -17 9 -3 18 -5 20 -6 1 -2 7 -4 12 -5 6 -1 12 -4 15 -5 3
-1 10 -4 15 -5 6 -1 13 -4 18 -5 4 -1 10 -2 15 -1 4 0 7 -4 7 -10 0 -5 4 -8 8
-5 5 3 21 -1 36 -9 15 -8 30 -14 34 -13 4 1 17 -3 28 -10 12 -6 24 -8 28 -5 3
3 6 1 6 -5 0 -7 6 -12 14 -12 7 0 30 -7 50 -15 20 -8 37 -14 38 -13 2 1 17 -5
33 -14 44 -23 128 -63 134 -64 3 0 24 -9 46 -19 22 -10 42 -19 45 -20 21 -6
126 -62 128 -68 2 -4 8 -5 13 -1 5 3 9 0 9 -5 0 -6 3 -10 8 -9 13 3 62 -25 62
-35 0 -6 3 -7 7 -4 3 4 22 -5 41 -20 20 -15 32 -21 28 -15 -6 11 50 -22 79
-46 6 -4 18 -11 28 -15 16 -6 17 32 15 755 -3 664 -5 762 -18 769 -22 12 -80
36 -122 50 -21 7 -38 16 -38 20 0 6 -58 23 -72 20 -5 0 -8 4 -8 9 0 5 -3 9 -7
8 -5 -1 -46 13 -93 31 -47 18 -96 35 -109 37 -14 3 -29 8 -35 12 -24 14 -140
51 -148 46 -4 -3 -8 0 -8 5 0 6 -3 10 -7 9 -10 -2 -64 13 -78 21 -13 7 -36 12
-57 12 -10 0 -18 3 -18 7 0 4 -11 9 -26 10 -14 1 -33 6 -42 11 -9 5 -30 12
-47 15 -16 3 -66 15 -110 26 -44 11 -92 22 -107 25 -15 2 -32 6 -38 10 -6 4
-23 8 -38 10 -15 3 -38 7 -52 10 -14 4 -34 8 -45 9 -11 2 -20 5 -20 6 0 1 -13
3 -30 5 -16 1 -30 3 -30 5 0 2 -39 8 -95 15 -19 2 -36 4 -37 5 -2 2 -11 3 -20
4 -10 1 -22 4 -28 7 -5 3 -20 4 -32 3 -13 0 -23 2 -23 5 0 4 -21 8 -47 9 -52
3 -98 8 -98 11 0 3 -121 14 -167 15 -21 1 -38 3 -38 7 0 3 -10 5 -22 5 -13 1
-70 5 -128 9 -216 17 -838 11 -1015 -10 -22 -3 -68 -7 -102 -10 -68 -6 -255
-31 -292 -39 -13 -3 -41 -6 -62 -8 -22 -1 -39 -4 -39 -7 0 -4 -17 -7 -38 -9
-37 -2 -77 -9 -77 -12 0 -1 -11 -3 -25 -4 -14 0 -29 -4 -35 -7 -5 -4 -19 -5
-29 -3 -11 1 -25 0 -30 -4 -6 -3 -15 -7 -21 -8 -5 -1 -23 -5 -40 -9 -36 -8
-74 -15 -95 -19 -9 -1 -20 -5 -25 -8 -6 -3 -28 -9 -50 -13 -22 -5 -44 -10 -50
-11 -25 -7 -131 -36 -140 -39 -40 -9 -73 -19 -90 -28 -11 -6 -31 -11 -45 -13
-33 -2 -54 -8 -60 -14 -7 -8 -133 -45 -143 -42 -4 1 -7 -3 -7 -9 0 -5 -4 -8
-9 -4 -5 3 -12 1 -16 -5 -3 -5 -16 -10 -29 -10 -12 0 -26 -4 -32 -8 -5 -5 -40
-19 -79 -32 -38 -13 -81 -30 -95 -37 -14 -7 -33 -13 -42 -13 -10 0 -18 -4 -18
-8 0 -5 -6 -9 -12 -9 -19 -2 -82 -27 -89 -36 -3 -4 -10 -7 -15 -6 -5 2 -38
-12 -73 -29 -36 -18 -70 -32 -78 -32 -7 0 -13 -5 -13 -10 0 -6 -3 -9 -8 -8 -4
1 -29 -9 -57 -22 -27 -12 -53 -22 -58 -22 -4 1 -7 -3 -7 -9 0 -5 -4 -8 -9 -4
-5 3 -16 -1 -23 -9 -8 -7 -25 -17 -38 -21 -14 -4 -27 -10 -30 -14 -8 -10 -104
-55 -112 -53 -5 1 -8 -2 -8 -8 0 -5 -5 -10 -11 -10 -6 0 -25 -10 -42 -22 -18
-13 -34 -22 -37 -21 -3 1 -21 -8 -40 -20 -19 -12 -39 -24 -45 -26 -5 -2 -23
-13 -39 -24 -18 -13 -26 -15 -21 -6 5 7 -4 2 -20 -13 -15 -16 -32 -28 -38 -28
-6 0 -18 -6 -26 -14 -9 -8 -23 -16 -31 -18 -8 -2 -23 -11 -35 -21 -11 -10 -35
-25 -52 -34 -18 -8 -33 -19 -33 -24 0 -5 -4 -9 -9 -9 -10 0 -106 -63 -133 -87
-10 -9 -18 -13 -18 -9 0 4 -6 2 -12 -4 -46 -38 -66 -53 -98 -72 -19 -12 -45
-32 -58 -45 -12 -13 -22 -21 -22 -18 0 3 -12 -6 -27 -20 -15 -14 -31 -25 -35
-25 -3 0 -13 -6 -20 -13 -7 -7 -33 -28 -58 -47 -75 -58 -82 -64 -111 -90 -15
-14 -47 -41 -70 -60 -23 -19 -53 -45 -66 -58 -13 -13 -23 -21 -23 -19 0 14
-408 -388 -500 -493 -25 -28 -56 -64 -70 -79 -14 -16 -39 -44 -55 -62 -17 -19
-59 -70 -95 -114 -35 -44 -68 -81 -72 -83 -5 -2 -8 -10 -8 -17 0 -8 -6 -18
-13 -22 -7 -4 -24 -24 -37 -43 -13 -19 -29 -40 -35 -46 -5 -6 -17 -22 -25 -34
-8 -12 -21 -28 -27 -36 -7 -7 -13 -17 -13 -22 0 -4 -11 -19 -25 -32 -14 -13
-23 -25 -20 -28 2 -2 -3 -11 -11 -19 -8 -8 -36 -47 -61 -87 -26 -39 -50 -72
-55 -74 -4 -2 -8 -8 -8 -13 0 -4 -20 -40 -45 -78 -25 -38 -45 -74 -45 -79 0
-6 -4 -12 -9 -14 -8 -3 -161 -267 -174 -300 -3 -10 -11 -18 -17 -18 -6 0 -8
-5 -5 -11 4 -5 -1 -19 -12 -31 -10 -11 -17 -22 -15 -24 1 -2 -12 -32 -30 -67
-18 -34 -33 -64 -33 -67 -1 -3 -20 -44 -43 -91 -23 -47 -42 -91 -42 -98 0 -6
-5 -11 -12 -11 -6 0 -9 -3 -6 -6 4 -3 -9 -39 -28 -80 -19 -41 -34 -82 -34 -90
0 -7 -4 -14 -8 -14 -8 0 -10 -6 -14 -49 -1 -11 -5 -18 -8 -16 -5 3 -100 -245
-106 -277 -1 -5 -3 -11 -4 -15 -1 -5 -2 -11 -1 -15 0 -5 -4 -8 -10 -8 -5 0 -8
-4 -5 -9 3 -5 -1 -21 -9 -37 -7 -15 -12 -31 -9 -36 3 -4 0 -8 -6 -8 -6 0 -8
-5 -5 -10 4 -6 1 -17 -5 -25 -7 -8 -9 -15 -5 -15 4 0 2 -7 -5 -15 -7 -8 -10
-15 -6 -15 3 0 0 -16 -8 -35 -8 -19 -13 -35 -11 -35 3 0 0 -12 -6 -27 -11 -29
-37 -121 -44 -157 -2 -12 -4 -21 -5 -21 -1 0 -3 -11 -6 -25 -2 -14 -8 -36 -14
-50 -5 -14 -11 -38 -14 -55 -3 -16 -8 -41 -11 -55 -3 -14 -8 -34 -10 -45 -2
-11 -6 -27 -8 -35 -2 -8 -8 -37 -12 -65 -10 -57 -12 -64 -15 -67 -1 -2 -3 -12
-5 -23 -1 -11 -8 -51 -15 -90 -15 -88 -21 -129 -23 -182 -1 -22 -5 -39 -8 -37
-3 2 -7 -16 -7 -39 -1 -23 -4 -53 -7 -67 -9 -44 -16 -124 -32 -350 -8 -100
-10 -633 -4 -770 2 -36 8 -71 13 -77 7 -9 7 -13 -2 -13 -7 0 -10 -7 -6 -16 5
-13 18 -141 20 -196 0 -10 3 -18 6 -18 3 0 6 -32 7 -72 2 -45 7 -75 15 -80 10
-6 10 -8 0 -8 -7 0 -11 -4 -8 -9 8 -12 27 -146 27 -183 0 -10 3 -18 7 -18 4 0
8 -12 8 -27 1 -16 5 -46 9 -68 4 -22 8 -50 8 -62 1 -13 5 -23 10 -23 5 0 8
-10 7 -22 -1 -13 -1 -25 0 -28 3 -9 9 -34 15 -65 12 -67 28 -131 36 -153 5
-13 9 -34 9 -47 0 -14 4 -25 9 -25 5 0 8 -8 6 -17 -1 -10 3 -32 10 -50 7 -17
19 -57 25 -90 7 -32 19 -70 26 -85 8 -15 14 -30 13 -33 -2 -13 14 -71 23 -82
6 -7 7 -13 4 -13 -4 0 -2 -9 4 -21 7 -11 14 -33 16 -47 3 -15 9 -31 13 -37 5
-5 12 -26 16 -45 4 -19 11 -39 15 -45 5 -5 9 -14 10 -20 1 -5 7 -21 12 -35 5
-14 12 -37 15 -52 3 -16 9 -28 14 -28 5 0 9 -11 9 -24 0 -14 4 -27 9 -30 5 -3
11 -16 15 -29 3 -13 15 -45 27 -73 12 -27 22 -50 21 -51 -1 -2 12 -31 28 -65
17 -35 30 -69 30 -75 0 -7 5 -13 11 -13 5 0 7 -4 4 -10 -3 -5 -1 -10 4 -10 6
0 11 -7 11 -16 0 -9 9 -33 19 -53 10 -20 38 -74 61 -121 78 -155 143 -275 152
-281 5 -3 9 -9 8 -13 0 -4 22 -46 50 -94 69 -118 67 -115 132 -215 32 -48 58
-92 58 -96 0 -5 4 -11 8 -13 8 -3 72 -95 72 -104 0 -2 8 -13 18 -23 32 -36 42
-50 42 -60 0 -5 3 -11 8 -13 10 -4 72 -85 72 -94 0 -4 11 -17 26 -30 14 -13
22 -24 19 -24 -4 0 0 -6 7 -13 7 -8 24 -29 38 -47 14 -18 30 -38 35 -44 6 -6
30 -36 54 -66 25 -30 55 -66 68 -80 12 -14 32 -36 44 -50 95 -115 442 -470
460 -470 5 0 9 -7 9 -15 0 -8 4 -15 9 -15 5 0 25 -15 44 -33 19 -17 56 -50 81
-72 25 -22 56 -49 69 -60 58 -50 199 -164 267 -215 19 -14 46 -35 61 -47 15
-13 32 -23 38 -23 6 0 11 -3 11 -8 0 -4 18 -18 40 -32 22 -14 40 -28 40 -33 0
-4 4 -6 9 -3 5 3 11 -1 15 -9 3 -8 12 -15 20 -15 8 0 16 -3 18 -7 5 -12 66
-53 78 -53 5 0 10 -4 10 -10 0 -5 6 -10 14 -10 8 0 16 -3 18 -7 4 -11 65 -53
76 -53 5 0 17 -9 27 -20 10 -11 22 -20 28 -20 5 0 21 -9 37 -20 15 -11 30 -17
33 -13 4 3 9 -2 13 -11 3 -9 10 -13 15 -10 5 3 9 1 9 -4 0 -5 14 -15 31 -22
17 -7 37 -20 45 -27 8 -8 20 -16 27 -17 6 -1 27 -11 45 -22 17 -12 80 -45 140
-75 59 -30 109 -57 112 -61 3 -3 18 -10 33 -13 15 -4 27 -11 27 -17 0 -5 5 -6
10 -3 6 3 10 2 10 -4 0 -5 13 -12 30 -16 16 -4 30 -11 30 -17 0 -6 3 -8 6 -5
4 3 16 0 28 -8 11 -8 28 -15 38 -15 10 0 18 -4 18 -10 0 -5 6 -10 13 -10 8 0
27 -6 43 -14 25 -13 78 -36 94 -41 3 -1 19 -8 35 -15 17 -7 32 -14 35 -15 3
-1 16 -6 30 -12 14 -6 45 -19 70 -28 25 -9 54 -20 65 -25 11 -4 34 -13 50 -18
17 -6 39 -14 50 -18 11 -4 22 -8 25 -8 3 -1 10 -4 16 -8 6 -4 22 -9 37 -12 15
-2 32 -8 39 -13 7 -4 15 -8 18 -8 24 -3 110 -30 110 -35 0 -5 22 -10 63 -13 9
-1 17 -4 17 -8 0 -7 68 -24 83 -21 4 1 7 -3 7 -9 0 -5 4 -8 8 -5 5 3 35 -3 68
-14 33 -10 73 -21 89 -24 51 -9 80 -19 87 -30 5 -8 8 -7 8 1 0 9 6 10 23 3 18
-7 99 -26 152 -35 6 -1 12 -3 15 -4 9 -4 44 -10 73 -13 15 -1 27 -5 27 -9 0
-3 14 -5 30 -3 17 2 30 0 30 -5 0 -4 10 -7 22 -6 13 1 28 0 33 -4 6 -3 26 -6
45 -7 19 -1 37 -3 40 -5 3 -1 10 -3 15 -4 6 -2 12 -3 15 -4 6 -3 73 -11 125
-16 22 -2 40 -4 40 -5 0 -1 14 -4 30 -5 17 -2 55 -6 85 -9 50 -5 80 -8 235
-22 82 -8 785 -13 785 -6 0 4 24 7 53 7 56 1 244 14 280 20 20 4 64 9 162 20
17 1 30 4 30 4 0 1 16 4 35 6 68 6 134 16 142 21 5 3 30 8 56 11 59 7 86 11
90 13 1 2 11 4 22 5 11 1 22 4 25 5 3 1 14 4 25 5 11 1 21 4 23 5 2 3 30 8 72
14 17 2 30 5 30 6 0 1 7 3 15 5 8 2 56 13 105 25 50 12 97 23 105 25 8 2 49
13 90 25 41 12 81 22 88 23 6 0 12 4 12 9 0 5 5 6 10 3 6 -4 17 -1 25 5 8 7
15 10 15 6 0 -3 16 0 35 8 19 8 35 13 35 11 0 -2 16 3 35 11 19 8 35 12 35 9
0 -3 11 2 25 11 13 8 29 13 35 9 5 -3 10 -1 10 6 0 7 2 10 5 7 3 -3 41 8 83
24 42 16 84 31 92 32 8 2 31 11 50 19 30 13 60 25 80 32 3 1 17 5 33 9 15 5
27 13 27 18 0 6 6 8 14 5 8 -3 16 -2 18 2 2 4 33 19 69 33 36 15 104 45 151
67 47 23 91 41 97 41 6 0 11 5 11 10 0 6 9 10 20 10 11 0 20 5 20 10 0 6 3 9
8 8 8 -1 45 13 52 21 9 10 94 51 107 51 6 0 13 4 15 8 2 4 29 21 60 36 32 16
55 33 52 37 -3 5 2 6 10 3 9 -3 16 -1 16 5 0 6 5 11 11 11 14 0 183 100 187
111 2 5 12 9 22 9 9 0 24 7 31 16 7 9 22 20 34 25 32 14 59 33 68 47 4 6 13
12 20 12 7 0 25 11 41 25 16 14 35 25 43 25 7 0 13 3 13 8 0 4 25 23 55 42 30
19 55 38 55 43 0 4 5 7 12 7 6 0 18 7 27 15 9 9 37 31 64 51 l47 35 0 2365 c0
1356 4 2364 9 2362 9 -3 103 -81 133 -110 10 -10 18 -15 18 -12 0 3 8 -2 17
-11 9 -10 51 -43 92 -74 42 -31 79 -60 83 -66 5 -7 8 -7 8 0 0 7 3 7 8 0 8
-12 78 -65 85 -65 6 0 138 -85 154 -99 7 -6 17 -11 24 -11 6 0 23 -8 37 -19
65 -46 331 -174 500 -241 179 -70 478 -161 607 -184 17 -2 41 -7 55 -10 14 -3
36 -8 50 -11 14 -3 41 -7 60 -10 19 -3 44 -6 55 -9 18 -3 52 -8 155 -21 213
-28 677 -28 872 0 18 2 56 6 83 9 80 8 311 53 440 86 396 100 833 290 1133
491 40 27 75 49 77 49 5 0 219 156 249 181 6 5 21 17 32 27 107 86 364 325
364 337 0 2 26 30 58 63 31 34 66 72 77 85 11 14 36 44 55 67 19 24 43 51 53
61 9 11 17 21 17 24 0 5 25 37 48 61 7 8 10 14 5 14 -4 0 -1 6 7 13 8 7 33 39
55 72 22 33 43 62 46 65 3 3 40 61 81 130 97 161 192 345 252 490 27 63 54
129 61 145 11 25 73 208 82 240 1 6 16 57 33 115 16 58 39 150 51 205 11 55
23 109 25 120 2 11 7 40 10 64 3 25 7 47 9 51 2 3 6 37 10 75 4 39 9 73 11 76
17 29 26 611 12 764 -8 79 -25 217 -34 265 -2 14 -7 48 -10 75 -4 28 -10 58
-16 68 -5 9 -7 17 -4 17 2 0 -1 19 -6 43 -5 23 -12 53 -14 67 -9 49 -56 217
-94 335 -84 264 -219 561 -360 793 -41 68 -79 132 -85 143 -5 10 -13 19 -17
19 -5 0 -8 6 -8 13 0 7 -11 24 -25 39 -14 15 -25 30 -25 33 0 8 -141 193 -174
228 -14 15 -26 31 -26 35 0 4 -9 14 -20 22 -11 8 -20 18 -20 23 0 11 -337 347
-405 404 -27 23 -97 79 -155 123 -58 45 -113 88 -122 96 -10 7 -18 11 -18 8 0
-3 -6 1 -14 8 -7 8 -44 34 -82 58 -38 25 -71 47 -74 51 -3 3 -20 12 -37 20
-18 8 -33 17 -33 21 0 5 -4 8 -9 8 -5 0 -35 16 -67 35 -92 56 -328 169 -469
225 -115 46 -314 116 -355 125 -8 1 -58 14 -110 29 -52 14 -106 27 -120 30
-14 2 -44 9 -67 14 -24 5 -43 8 -43 6 0 -3 -8 -1 -17 4 -10 6 -40 12 -68 16
-27 3 -59 8 -70 10 -20 4 -161 22 -245 32 -55 6 -576 14 -582 9z m467 -1289
c59 -7 146 -19 210 -30 98 -17 154 -30 270 -62 72 -20 134 -41 140 -45 5 -5
15 -9 22 -9 35 0 309 -128 432 -202 34 -21 65 -38 66 -38 10 0 137 -90 227
-161 120 -95 339 -311 423 -419 32 -41 64 -78 69 -82 7 -5 7 -8 1 -8 -6 0 -5
-3 1 -8 25 -16 190 -284 241 -392 59 -124 146 -357 168 -450 31 -129 49 -221
60 -300 3 -25 8 -52 10 -60 20 -73 26 -411 9 -556 -50 -439 -156 -759 -367
-1109 -62 -103 -164 -247 -179 -253 -4 -2 -8 -8 -8 -12 0 -11 -7 -19 -181
-207 -19 -21 -71 -69 -114 -108 -43 -38 -87 -78 -97 -87 -10 -10 -20 -18 -23
-18 -3 0 -31 -21 -63 -47 -52 -42 -136 -100 -187 -129 -11 -6 -60 -34 -108
-63 -49 -28 -90 -51 -92 -51 -2 0 -41 -17 -87 -39 -190 -89 -457 -171 -638
-197 -19 -3 -46 -7 -60 -10 -14 -2 -36 -6 -49 -9 -129 -24 -557 -25 -651 0 -8
2 -37 6 -63 10 -60 7 -123 19 -212 40 -38 10 -77 18 -85 20 -8 2 -15 4 -15 5
0 1 -9 4 -50 14 -109 25 -522 204 -545 236 -3 4 -15 10 -27 14 -13 4 -23 12
-23 17 0 5 -4 9 -10 9 -31 0 -400 277 -400 301 0 5 -6 9 -14 9 -8 0 -16 4 -18
9 -2 6 -41 50 -89 98 -180 185 -322 385 -447 628 -49 95 -152 349 -152 374 0
10 -3 21 -7 25 -4 3 -8 12 -9 19 -2 7 -10 39 -19 72 -17 62 -43 179 -51 228
-21 132 -24 157 -32 262 -11 162 -5 407 13 505 2 14 7 41 9 60 38 301 170 670
338 946 29 49 60 100 68 114 8 14 17 27 20 30 3 3 34 43 70 90 74 97 84 110
123 154 96 106 217 223 291 281 21 17 44 35 50 40 40 36 106 85 115 85 5 0 14
6 18 13 16 26 299 186 433 245 68 30 211 84 245 93 17 4 73 19 125 34 52 15
107 29 123 31 15 2 31 5 36 8 4 3 32 8 61 11 30 4 57 8 60 10 6 3 95 14 210
24 81 8 333 5 415 -3z"/>
<path d="M15213 7218 c3 -7 28 -65 55 -128 347 -810 263 -1718 -227 -2460
-157 -239 -462 -544 -706 -708 -424 -284 -939 -442 -1445 -442 -504 0 -1009
154 -1440 439 -165 109 -398 319 -536 484 l-74 88 2 -862 3 -863 80 -48 c113
-69 378 -198 525 -256 336 -133 692 -220 1052 -257 193 -20 583 -20 776 0 902
93 1718 480 2358 1119 569 570 936 1274 1078 2066 41 228 56 415 56 680 0 397
-48 739 -155 1103 l-16 57 -696 0 c-552 0 -694 -3 -690 -12z"/>
</g>
</svg>
